<svg width="196" height="196" viewBox="0 0 196 196" fill="none" xmlns="http://www.w3.org/2000/svg">
<rect x="17.0872" y="17.0872" width="161.826" height="161.826" rx="80.9128" fill="#C9E84C"></rect>
<path d="M115.236 62.2756C128.521 62.2758 139.149 73.0182 139.149 86.1897V108.323C139.149 121.236 129.118 131.631 116.359 132.21V118.822C121.654 118.259 125.794 113.766 125.794 108.323V86.1897C125.794 80.3684 121.057 75.6322 115.236 75.6321C109.415 75.6321 104.678 80.3683 104.678 86.1897V108.323C104.678 121.609 93.936 132.238 80.7644 132.238C67.4754 132.238 56.8503 121.612 56.8503 108.323V86.1897C56.8503 73.3914 66.885 62.8872 79.6414 62.302V75.6917C74.3459 76.2542 70.2068 80.7476 70.2068 86.1897V108.323C70.2068 114.145 74.943 118.882 80.7644 118.882C86.5858 118.882 91.322 114.145 91.322 108.323V86.1897C91.322 73.0216 102.068 62.2756 115.236 62.2756Z" fill="#4B4BC0" stroke="#C9E84C" stroke-width="2.247"></path>
</svg>