<svg width="630" height="152" viewBox="0 0 630 152" fill="none" xmlns="http://www.w3.org/2000/svg">
<rect x="46.7744" y="11.2905" width="129.193" height="129.193" rx="64.5967" fill="#C9E84C"></rect>
<path d="M126.539 44.509C138.231 44.5091 147.584 53.9634 147.584 65.5549V85.0334C147.584 96.3969 138.756 105.544 127.528 106.054V94.2708C132.188 93.7756 135.83 89.8227 135.83 85.0334V65.5549C135.83 60.4319 131.662 56.263 126.539 56.2629C121.416 56.2629 117.248 60.4318 117.248 65.5549V85.0334C117.248 96.7251 107.795 106.078 96.2034 106.078C84.5085 106.078 75.1575 96.7283 75.1575 85.0334V65.5549C75.1575 54.2921 83.9882 45.0487 95.2141 44.5334V56.3157C90.5541 56.8109 86.9114 60.7658 86.9114 65.5549V85.0334C86.9114 90.1566 91.0803 94.3245 96.2034 94.3245C101.326 94.3242 105.494 90.1564 105.494 85.0334V65.5549C105.494 53.9665 114.951 44.509 126.539 44.509Z" fill="#4B4BC0" stroke="#C9E84C" stroke-width="1.97745"></path>
<path d="M224.176 82.8904C226.508 82.8904 228.407 80.9921 228.407 78.6598C228.407 76.3275 226.508 74.4292 224.176 74.4292H214.25C208.013 74.4292 203.023 69.385 203.023 63.2018C203.023 56.9643 208.013 51.9744 214.25 51.9744H224.176C230.359 51.9744 235.404 56.9643 235.404 63.2018H228.407C228.407 60.8695 226.508 58.9712 224.176 58.9712H214.25C211.918 58.9712 210.02 60.8695 210.02 63.2018C210.02 65.5341 211.918 67.4324 214.25 67.4324H224.176C230.359 67.4324 235.404 72.4766 235.404 78.6598C235.404 84.8973 230.359 89.8872 224.176 89.8872H214.25C208.013 89.8872 203.023 84.8973 203.023 78.6598H210.02C210.02 80.9921 211.918 82.8904 214.25 82.8904H224.176ZM252.023 83.5955L251.751 82.8904L239.385 51.9744H246.924L255.548 73.4529L264.172 51.9744H271.766L259.345 82.8904L259.074 83.5955V89.8872H252.023V83.5955ZM278.395 51.9744V51.9201H285.392V51.9744H286.694L294.559 64.395L298.735 70.9579L303.779 78.8225V51.9201H310.776V89.8872H302.477L294.559 77.4666L290.436 70.9579L285.392 63.0391V89.8872H278.395V51.9744ZM349.839 84.3549C342.408 91.7856 330.422 91.7856 322.991 84.3549C315.56 76.9242 315.56 64.9374 322.991 57.5067C330.422 50.076 342.408 50.076 349.839 57.5067L344.849 62.4967C340.185 57.7779 332.646 57.7779 327.981 62.4967C323.262 67.1612 323.262 74.7004 327.981 79.3649C332.646 84.0837 340.185 84.0837 344.849 79.3649L349.839 84.3549ZM363.466 73.2902V89.8872H356.469V51.9201H363.466V51.9744H363.845L372.632 78.714L381.473 51.9744H381.853V51.9201H388.85V89.8872H381.853V73.2902L376.32 89.8872H368.944L363.466 73.2902ZM405.241 82.8904L402.909 89.8872H395.532L408.007 51.9744H415.384L427.913 89.8872H420.536L418.204 82.8904H405.241ZM411.695 63.1476L407.519 75.8394H415.872L411.695 63.1476ZM453.047 82.8904C455.38 82.8904 457.278 80.9921 457.278 78.6598C457.278 76.3275 455.38 74.4292 453.047 74.4292H443.122C436.884 74.4292 431.894 69.385 431.894 63.2018C431.894 56.9643 436.884 51.9744 443.122 51.9744H453.047C459.231 51.9744 464.275 56.9643 464.275 63.2018H457.278C457.278 60.8695 455.38 58.9712 453.047 58.9712H443.122C440.789 58.9712 438.891 60.8695 438.891 63.2018C438.891 65.5341 440.789 67.4324 443.122 67.4324H453.047C459.231 67.4324 464.275 72.4766 464.275 78.6598C464.275 84.8973 459.231 89.8872 453.047 89.8872H443.122C436.884 89.8872 431.894 84.8973 431.894 78.6598H438.891C438.891 80.9921 440.789 82.8904 443.122 82.8904H453.047ZM482.59 89.8872V58.9712H469.898V51.9744H502.279V58.9712H489.587V89.8872H482.59ZM515.905 89.8872H508.909V51.9744H541.289V58.9712H515.905V67.4324H534.238V74.4292H515.905V82.8904H541.289V89.8872H515.905ZM547.919 89.8872V81.4802V74.4292V58.9712V51.9744H565.546C573.682 51.9744 580.299 58.5373 580.299 66.7273C580.299 71.9342 577.587 76.5445 573.465 79.148L580.299 89.8872H572.001L566.577 81.426C566.252 81.4802 565.872 81.4802 565.546 81.4802H554.916V89.8872H547.919ZM554.916 58.9712V74.4292H565.546C567.065 74.4292 568.53 73.9953 569.723 73.2359C571.838 71.8257 573.303 69.4392 573.303 66.7273C573.303 62.4424 569.831 58.9712 565.546 58.9712H554.916Z" fill="white"></path>
</svg>