<svg width="296" height="232" viewBox="0 0 296 232" fill="none" xmlns="http://www.w3.org/2000/svg">
<rect x="87.5947" y="16.5122" width="119.985" height="119.985" rx="59.9925" fill="#C9E84C"></rect>
<path d="M157.79 54.7024C165.882 54.7024 172.356 61.2462 172.356 69.2678V82.3713C172.355 90.3775 166.02 96.7963 158.048 96.9319V88.2063C161.15 88.0711 163.633 85.5058 163.633 82.3713V69.2678C163.633 66.0469 161.011 63.425 157.79 63.425C154.57 63.4253 151.948 66.047 151.948 69.2678V82.3713C151.948 90.4626 145.405 96.9356 137.384 96.9358C129.292 96.9358 122.819 90.4635 122.819 82.3713V69.2678C122.819 61.3315 129.155 54.8424 137.126 54.7053V63.4309C134.024 63.5661 131.541 66.1331 131.541 69.2678V82.3713C131.541 85.5921 134.163 88.2131 137.384 88.2131C140.605 88.2129 143.226 85.592 143.226 82.3713V69.2678C143.226 61.2472 149.77 54.7026 157.79 54.7024Z" fill="#4B4BC0" stroke="#C9E84C" stroke-width="0.514222"></path>
<path d="M35.9952 191.894C37.5288 191.894 38.7771 190.645 38.7771 189.112C38.7771 187.578 37.5288 186.33 35.9952 186.33H29.4685C25.367 186.33 22.0858 183.013 22.0858 178.947C22.0858 174.846 25.367 171.564 29.4685 171.564H35.9952C40.061 171.564 43.3779 174.846 43.3779 178.947H38.7771C38.7771 177.414 37.5288 176.165 35.9952 176.165H29.4685C27.9349 176.165 26.6866 177.414 26.6866 178.947C26.6866 180.481 27.9349 181.729 29.4685 181.729H35.9952C40.061 181.729 43.3779 185.046 43.3779 189.112C43.3779 193.213 40.061 196.494 35.9952 196.494H29.4685C25.367 196.494 22.0858 193.213 22.0858 189.112H26.6866C26.6866 190.645 27.9349 191.894 29.4685 191.894H35.9952ZM54.5556 192.357L54.3773 191.894L46.2457 171.564H51.2031L56.8739 185.688L62.5446 171.564H67.5377L59.3704 191.894L59.1921 192.357V196.494H54.5556V192.357ZM72.147 171.564V171.529H76.7478V171.564H77.6038L82.7752 179.732L85.5214 184.047L88.8383 189.219V171.529H93.4391V196.494H87.9823L82.7752 188.327L80.0647 184.047L76.7478 178.84V196.494H72.147V171.564ZM119.375 192.857C114.489 197.743 106.607 197.743 101.721 192.857C96.8349 187.97 96.8349 180.088 101.721 175.202C106.607 170.316 114.489 170.316 119.375 175.202L116.094 178.483C113.027 175.381 108.069 175.381 105.002 178.483C101.899 181.551 101.899 186.508 105.002 189.575C108.069 192.678 113.027 192.678 116.094 189.575L119.375 192.857ZM128.585 185.581V196.494H123.984V171.529H128.585V171.564H128.835L134.613 189.147L140.426 171.564H140.676V171.529H145.277V196.494H140.676V185.581L137.038 196.494H132.187L128.585 185.581ZM156.305 191.894L154.771 196.494H149.921L158.124 171.564H162.974L171.213 196.494H166.362L164.829 191.894H156.305ZM160.549 178.911L157.803 187.257H163.295L160.549 178.911ZM187.99 191.894C189.524 191.894 190.772 190.645 190.772 189.112C190.772 187.578 189.524 186.33 187.99 186.33H181.463C177.362 186.33 174.081 183.013 174.081 178.947C174.081 174.846 177.362 171.564 181.463 171.564H187.99C192.056 171.564 195.373 174.846 195.373 178.947H190.772C190.772 177.414 189.524 176.165 187.99 176.165H181.463C179.93 176.165 178.681 177.414 178.681 178.947C178.681 180.481 179.93 181.729 181.463 181.729H187.99C192.056 181.729 195.373 185.046 195.373 189.112C195.373 193.213 192.056 196.494 187.99 196.494H181.463C177.362 196.494 174.081 193.213 174.081 189.112H178.681C178.681 190.645 179.93 191.894 181.463 191.894H187.99ZM207.666 196.494V176.165H199.32V171.564H220.612V176.165H212.267V196.494H207.666ZM229.822 196.494H225.221V171.564H246.514V176.165H229.822V181.729H241.877V186.33H229.822V191.894H246.514V196.494H229.822ZM251.123 196.494V190.966V186.33V176.165V171.564H262.714C268.064 171.564 272.415 175.88 272.415 181.265C272.415 184.689 270.632 187.721 267.921 189.433L272.415 196.494H266.958L263.392 190.931C263.178 190.966 262.928 190.966 262.714 190.966H255.724V196.494H251.123ZM255.724 176.165V186.33H262.714C263.713 186.33 264.676 186.045 265.46 185.545C266.851 184.618 267.814 183.049 267.814 181.265C267.814 178.448 265.532 176.165 262.714 176.165H255.724Z" fill="#4B4BC0"></path>
</svg>